<?xml version="1.0" standalone="no"?><!DOCTYPE svg PUBLIC "-//W3C//DTD SVG 1.1//EN" "http://www.w3.org/Graphics/SVG/1.1/DTD/svg11.dtd"><svg t="1740159712243" class="icon" viewBox="0 0 1024 1024" version="1.1" xmlns="http://www.w3.org/2000/svg" p-id="2933" xmlns:xlink="http://www.w3.org/1999/xlink" width="200" height="200"><path d="M959.376 311.285c0 95.015-75.166 221.668-167.88 221.668-6.688 0-29.626-1.09-36.055-2.012C706.04 645.81 603.359 710.638 556.218 710.638V851.67h67.399c15.441 0 27.98 29.378 27.98 45.217 0 15.84-12.539 45.219-27.98 45.219h-223.84c-15.46 0-27.98-29.38-27.98-45.22 0-15.838 12.52-45.216 27.98-45.216h67.397V710.638c-47.139 0-147.462-71.92-199.22-179.697-6.447 0.92-29.372 2.012-36.059 2.012-92.729 0-167.882-126.654-167.882-221.668 0-114.723-7.237-114.69 184.425-114.69 0-63.352 50.111-114.7 111.92-114.7h302.676c61.807 0 111.917 51.348 111.917 114.7 191.666-0.002 184.425-0.034 184.425 114.69z m-710.937-40.8c-110.79 0-111.921-22.543-111.921 40.799s50.112 147.775 111.92 147.775V270.484z m526.514 0v188.574c61.81 0 111.92-84.434 111.92-147.775s-1.145-40.8-111.92-40.8z" fill="#2c2c2c" p-id="2934"></path></svg>